<?xml version="1.0" encoding="UTF-8"?>
<!DOCTYPE svg PUBLIC "-//W3C//DTD SVG 1.1//EN" "http://www.w3.org/Graphics/SVG/1.1/DTD/svg11.dtd">
<!-- Creator: CorelDRAW 2018 (64-Bit) -->
<svg xmlns="http://www.w3.org/2000/svg" xml:space="preserve" width="297mm" height="210mm" version="1.1" style="shape-rendering:geometricPrecision; text-rendering:geometricPrecision; image-rendering:optimizeQuality; fill-rule:evenodd; clip-rule:evenodd"
viewBox="0 0 29700 21000"
 xmlns:xlink="http://www.w3.org/1999/xlink">
 <defs>
  <style type="text/css">
   <![CDATA[
    .str0 {stroke:#2B2A29;stroke-width:20;stroke-miterlimit:22.9256}
    .fil1 {fill:none}
    .fil0 {fill:#FEFEFE}
   ]]>
  </style>
 </defs>
 <g id="Слой_x0020_1">
  <metadata id="CorelCorpID_0Corel-Layer"/>
  <polygon class="fil0" points="6523.85,5849.92 7575.24,5847.79 9003.46,9413.13 7927.93,9416.29 "/>
  <polygon class="fil0" points="13270.66,5850.51 14224.79,5851.02 14224.79,9412.87 13271.12,9414.18 "/>
  <polygon class="fil0" points="8842.14,11732.48 9896.86,11738.29 10471.29,13166.47 9941.58,14557.33 "/>
  <path class="fil1" d="M6525.67 13670.24c-19.87,312.01 -101.04,570.01 -226.79,769.42 -133.32,211.42 -366.4,319.16 -642.26,386.43 296.7,-3.72 593.39,-3.07 890.09,-6.79"/>
  <path class="fil1" d="M6525.67 13670.24c19.86,312.01 105.8,573.93 231.53,773.33 133.32,211.4 366.4,319.17 642.27,386.43 -296.7,-3.72 -593.39,-7.44 -890.09,-11.17"/>
  <polygon class="fil0" points="13270.24,11734.52 14224.44,11736.89 14221.27,14822.79 13268.67,14822.79 "/>
  <path class="fil0" d="M19020.32 5876.67c-856.43,343.45 -1389.02,1254.11 -1381.83,2232.04 3.07,416.72 33.39,876.27 308.7,1307.18 539.37,0 1078.75,0 1618.12,0 -552.56,-140.67 -971.19,-340.41 -1220.37,-617.69 -587.04,-653.26 -511.51,-1594.86 -41.91,-2328.42 169.39,-264.64 381.88,-410.49 717.29,-593.11z"/>
  <path class="fil0" d="M21241.72 5904.57c290.35,158.31 648.67,354.89 934.21,407.58 168.35,31.07 437.68,-127.24 479.78,-394.95 -2.8,768.74 -5.62,1537.45 -8.42,2306.19 -52.52,-431.68 -178.74,-869.37 -380.6,-1244.55 -226.61,-421.2 -583.72,-766.68 -1024.97,-1074.27z"/>
  <path class="fil0" d="M19301.06 14714.57c-305.21,-128.55 -754.77,-287.55 -1038.14,-316.96 -171.58,-17.82 -580.78,76.74 -631.3,357.08 2.8,-768.74 9.83,-1621.63 12.63,-2390.36 52.52,431.68 229.28,850.46 431.11,1225.61 226.57,421.16 767.6,842.31 1225.7,1124.63z"/>
  <path class="fil0" d="M21553.1 14770.05c1252.57,-388.14 1761.24,-1965.21 1569.72,-3059.47 -539.37,0 -190.77,0 -730.14,0 430.21,616.91 470.88,1322.93 262.71,1881.73 -212.08,569.34 -681.11,987.51 -1102.29,1177.74z"/>
  <polygon class="fil0" points="6523.85,5849.92 7927.93,9416.29 9003.46,9413.13 7575.24,5847.79 "/>
  <polygon class="fil0" points="13270.66,5850.51 13271.12,9414.18 14224.79,9412.87 14224.79,5851.02 "/>
  <path class="fil0" d="M17638.49 8108.71c3.07,416.72 33.39,876.27 308.7,1307.18 539.37,0 1078.75,0 1618.12,0 -552.56,-140.67 -971.19,-340.41 -1220.37,-617.69 -587.04,-653.26 -511.51,-1594.86 -41.91,-2328.42 169.39,-264.64 381.88,-410.49 717.29,-593.11 -856.43,343.45 -1389.02,1254.11 -1381.83,2232.04z"/>
  <path class="fil0" d="M21241.72 5904.57c441.25,307.59 798.36,653.07 1024.97,1074.27 201.86,375.18 328.08,812.87 380.6,1244.55 2.8,-768.74 5.62,-1537.45 8.42,-2306.19 -42.1,267.71 -311.43,426.02 -479.78,394.95 -285.54,-52.69 -643.86,-249.27 -934.21,-407.58z"/>
  <polygon class="fil0" points="10471.29,13166.47 9896.86,11738.29 8842.14,11732.48 9941.58,14557.33 "/>
  <polygon class="fil0" points="13270.24,11734.52 13268.67,14822.79 14221.27,14822.79 14224.44,11736.89 "/>
  <path class="fil0" d="M17644.25 12364.33c-2.8,768.73 -9.83,1621.62 -12.63,2390.36 50.52,-280.34 459.72,-374.9 631.3,-357.08 283.37,29.41 732.93,188.41 1038.14,316.96 -458.1,-282.32 -999.13,-703.47 -1225.7,-1124.63 -201.83,-375.15 -378.59,-793.93 -431.11,-1225.61z"/>
  <path class="fil0" d="M22392.68 11710.58c430.21,616.91 470.88,1322.93 262.71,1881.73 -212.08,569.34 -681.11,987.51 -1102.29,1177.74 1252.57,-388.14 1761.24,-1965.21 1569.72,-3059.47 -539.37,0 -190.77,0 -730.14,0z"/>
  <path class="fil0" d="M7399.47 14830c-275.87,-67.26 -508.95,-175.03 -642.27,-386.43 -125.73,-199.4 -211.67,-461.32 -231.53,-773.33 -19.87,312.01 -101.04,570.01 -226.79,769.42 -133.32,211.42 -366.4,319.16 -642.26,386.43 296.6,-3.72 593.19,-3.07 889.8,-6.79 284.36,3.56 568.69,7.14 853.05,10.7z"/>
  <rect class="fil0 str0" x="3469.43" y="10265.8" width="23253.63" height="422.15"/>
 </g>
</svg>
