<?xml version="1.0" encoding="UTF-8"?>
<!DOCTYPE svg PUBLIC "-//W3C//DTD SVG 1.1//EN" "http://www.w3.org/Graphics/SVG/1.1/DTD/svg11.dtd">
<!-- Creator: CorelDRAW 2018 (64-Bit) -->
<svg xmlns="http://www.w3.org/2000/svg" xml:space="preserve" width="297mm" height="210mm" version="1.1" style="shape-rendering:geometricPrecision; text-rendering:geometricPrecision; image-rendering:optimizeQuality; fill-rule:evenodd; clip-rule:evenodd"
viewBox="0 0 29700 21000"
 xmlns:xlink="http://www.w3.org/1999/xlink">
 <defs>
  <style type="text/css">
   <![CDATA[
    .fil1 {fill:none}
    .fil0 {fill:#FEFEFE}
    .fil2 {fill:#FEFEFE;fill-rule:nonzero}
   ]]>
  </style>
 </defs>
 <g id="Слой_x0020_1">
  <metadata id="CorelCorpID_0Corel-Layer"/>
  <polygon class="fil0" points="6523.85,5849.92 7575.24,5847.79 9003.46,9413.13 7927.93,9416.29 "/>
  <polygon class="fil0" points="13270.66,5850.51 14224.79,5851.02 14224.79,9412.87 13271.12,9414.18 "/>
  <polygon class="fil0" points="8842.14,11732.48 9896.86,11738.29 10471.29,13166.47 9941.58,14557.33 "/>
  <path class="fil1" d="M6525.67 13670.24c-19.87,312.01 -101.04,570.01 -226.79,769.42 -133.32,211.42 -366.4,319.16 -642.26,386.43 296.7,-3.72 593.39,-3.07 890.09,-6.79"/>
  <path class="fil1" d="M6525.67 13670.24c19.86,312.01 105.8,573.93 231.53,773.33 133.32,211.4 366.4,319.17 642.27,386.43 -296.7,-3.72 -593.39,-7.44 -890.09,-11.17"/>
  <polygon class="fil0" points="13270.24,11734.52 14224.44,11736.89 14221.27,14822.79 13268.67,14822.79 "/>
  <path class="fil0" d="M19020.32 5876.67c-856.43,343.45 -1389.02,1254.11 -1381.83,2232.04 3.07,416.72 33.39,876.27 308.7,1307.18 539.37,0 1078.75,0 1618.12,0 -552.56,-140.67 -971.19,-340.41 -1220.37,-617.69 -587.04,-653.26 -511.51,-1594.86 -41.91,-2328.42 169.39,-264.64 381.88,-410.49 717.29,-593.11z"/>
  <path class="fil0" d="M21241.72 5904.57c290.35,158.31 648.67,354.89 934.21,407.58 168.35,31.07 437.68,-127.24 479.78,-394.95 -2.8,768.74 -5.62,1537.45 -8.42,2306.19 -52.52,-431.68 -178.74,-869.37 -380.6,-1244.55 -226.61,-421.2 -583.72,-766.68 -1024.97,-1074.27z"/>
  <path class="fil0" d="M19301.06 14714.57c-305.21,-128.55 -754.77,-287.55 -1038.14,-316.96 -171.58,-17.82 -580.78,76.74 -631.3,357.08 2.8,-768.74 9.83,-1621.63 12.63,-2390.36 52.52,431.68 229.28,850.46 431.11,1225.61 226.57,421.16 767.6,842.31 1225.7,1124.63z"/>
  <path class="fil0" d="M21553.1 14770.05c1252.57,-388.14 1761.24,-1965.21 1569.72,-3059.47 -539.37,0 -190.77,0 -730.14,0 430.21,616.91 470.88,1322.93 262.71,1881.73 -212.08,569.34 -681.11,987.51 -1102.29,1177.74z"/>
  <polygon class="fil2" points="1510.91,11260.4 1592.94,11260.4 1592.94,10022.25 2159.55,10838.78 2165.28,10838.78 2729.98,10022.25 2729.98,11260.4 2815.83,11260.4 2815.83,9871.54 2735.7,9871.54 2163.37,10705.24 1591.03,9871.54 1510.91,9871.54 "/>
  <path id="1" class="fil2" d="M3128.71 11260.4l87.76 0 183.14 -396.82 839.43 0 183.14 396.82 93.49 0 -654.37 -1398.4 -80.13 0 -652.46 1398.4zm307.15 -475.04l383.47 -827.97 383.46 827.97 -766.93 0z"/>
  <path id="2" class="fil2" d="M4826.64 11260.4l85.85 0 0 -583.78 473.13 0 446.42 583.78 108.74 0 -459.77 -597.14c244.19,-24.8 421.61,-162.16 421.61,-394.91l0 -3.81c0,-101.11 -36.24,-190.78 -103.02,-257.55 -83.94,-83.94 -219.39,-135.45 -394.91,-135.45l-578.05 0 0 1388.86zm85.85 -662l0 -648.64 488.39 0c261.36,0 415.89,120.19 415.89,318.59l0 3.82c0,198.41 -167.88,326.23 -425.43,326.23l-478.85 0z"/>
  <path id="3" class="fil2" d="M6908.03 11283.29c227.03,0 413.99,-95.39 543.72,-209.85l0 -526.55 -560.89 0 0 80.13 478.85 0 0 413.99c-106.83,89.66 -272.81,167.88 -457.86,167.88 -381.56,0 -610.49,-282.35 -610.49,-642.92l0 -3.82c0,-335.77 240.38,-637.2 593.32,-637.2 209.85,0 333.86,72.5 450.23,167.89l55.33 -62.96c-135.46,-116.37 -280.45,-181.24 -499.84,-181.24 -417.81,0 -686.8,343.4 -686.8,717.33l0 3.81c0,391.1 257.55,713.51 694.43,713.51z"/>
  <path id="4" class="fil2" d="M7728.38 11260.4l87.76 0 183.14 -396.82 839.43 0 183.14 396.82 93.49 0 -654.37 -1398.4 -80.13 0 -652.46 1398.4zm307.15 -475.04l383.47 -827.97 383.46 827.97 -766.93 0z"/>
  <path id="5" class="fil2" d="M9426.31 11260.4l85.85 0 0 -583.78 473.13 0 446.42 583.78 108.74 0 -459.77 -597.14c244.19,-24.8 421.61,-162.16 421.61,-394.91l0 -3.81c0,-101.11 -36.24,-190.78 -103.02,-257.55 -83.94,-83.94 -219.39,-135.45 -394.91,-135.45l-578.05 0 0 1388.86zm85.85 -662l0 -648.64 488.39 0c261.36,0 415.89,120.19 415.89,318.59l0 3.82c0,198.41 -167.88,326.23 -425.43,326.23l-478.85 0z"/>
  <polygon id="6" class="fil2" points="10897.2,11260.4 10983.05,11260.4 10983.05,9871.54 10897.2,9871.54 "/>
  <polygon id="7" class="fil2" points="11801.49,11260.4 11885.43,11260.4 11885.43,9949.76 12375.73,9949.76 12375.73,9871.54 11311.19,9871.54 11311.19,9949.76 11801.49,9949.76 "/>
  <path id="8" class="fil2" d="M12394.81 11260.4l87.76 0 183.14 -396.82 839.43 0 183.14 396.82 93.49 0 -654.37 -1398.4 -80.13 0 -652.46 1398.4zm307.15 -475.04l383.47 -827.97 383.46 827.97 -766.93 0z"/>
  <path id="9" class="fil2" d="M15166.81 11279.48c276.63,0 465.5,-156.44 465.5,-375.83l0 -3.82c0,-200.32 -133.54,-309.06 -463.59,-379.65 -333.86,-64.86 -417.8,-158.34 -417.8,-309.06l0 -5.72c0,-148.81 141.17,-276.63 358.66,-276.63 160.25,0 293.8,49.6 423.53,156.44l55.32 -68.68c-137.36,-106.84 -276.63,-164.07 -475.03,-164.07 -259.46,0 -448.33,156.44 -448.33,360.57l0 3.81c0,206.04 133.54,316.7 469.31,383.47 328.14,66.77 412.08,154.53 412.08,307.15l0 3.82c0,167.88 -150.71,291.89 -373.92,291.89 -206.04,0 -354.85,-68.68 -505.57,-207.95l-57.23 62.96c162.16,146.89 335.77,221.3 557.07,221.3z"/>
  <polygon id="10" class="fil2" points="16006.23,11260.4 16092.08,11260.4 16092.08,9871.54 16006.23,9871.54 "/>
  <polygon id="11" class="fil2" points="16542.32,11260.4 16624.35,11260.4 16624.35,10022.25 17190.96,10838.78 17196.69,10838.78 17761.39,10022.25 17761.39,11260.4 17847.24,11260.4 17847.24,9871.54 17767.11,9871.54 17194.78,10705.24 16622.44,9871.54 16542.32,9871.54 "/>
  <path id="12" class="fil2" d="M18160.12 11260.4l87.76 0 183.14 -396.82 839.43 0 183.14 396.82 93.49 0 -654.37 -1398.4 -80.13 0 -652.46 1398.4zm307.15 -475.04l383.47 -827.97 383.46 827.97 -766.93 0z"/>
  <path id="13" class="fil2" d="M20409.39 11283.29c227.03,0 413.99,-95.39 543.72,-209.85l0 -526.55 -560.89 0 0 80.13 478.85 0 0 413.99c-106.83,89.66 -272.81,167.88 -457.86,167.88 -381.56,0 -610.49,-282.35 -610.49,-642.92l0 -3.82c0,-335.77 240.38,-637.2 593.32,-637.2 209.85,0 333.86,72.5 450.23,167.89l55.33 -62.96c-135.46,-116.37 -280.45,-181.24 -499.84,-181.24 -417.81,0 -686.8,343.4 -686.8,717.33l0 3.81c0,391.1 257.55,713.51 694.43,713.51z"/>
  <path id="14" class="fil2" d="M21229.74 11260.4l87.76 0 183.14 -396.82 839.43 0 183.14 396.82 93.49 0 -654.37 -1398.4 -80.13 0 -652.46 1398.4zm307.15 -475.04l383.47 -827.97 383.46 827.97 -766.93 0z"/>
  <polygon id="15" class="fil2" points="22927.67,11260.4 23009.7,11260.4 23009.7,10001.27 24011.29,11260.4 24076.15,11260.4 24076.15,9871.54 23994.12,9871.54 23994.12,11113.5 23007.79,9871.54 22927.67,9871.54 "/>
  <path id="16" class="fil2" d="M25144.51 11283.29c421.62,0 698.25,-337.67 698.25,-717.32l0 -3.82c0,-377.74 -274.72,-713.51 -696.34,-713.51 -419.71,0 -696.34,337.68 -696.34,717.33l0 3.81c0,377.74 274.72,713.51 694.43,713.51zm3.82 -76.31c-358.67,0 -610.49,-295.7 -610.49,-641.01l0 -3.82c0,-347.21 249.92,-637.2 606.67,-637.2 356.75,0 608.58,295.71 608.58,641.02l0 3.81c0,347.22 -246.1,637.2 -604.76,637.2z"/>
  <polygon id="17" class="fil2" points="26630.67,11269.94 26705.08,11269.94 27321.29,9871.54 27231.62,9871.54 26668.83,11166.92 26107.94,9871.54 26014.46,9871.54 "/>
  <path id="18" class="fil2" d="M27313.66 11260.4l87.76 0 183.14 -396.82 839.43 0 183.14 396.82 93.49 0 -654.37 -1398.4 -80.13 0 -652.46 1398.4zm307.15 -475.04l383.47 -827.97 383.46 827.97 -766.93 0z"/>
  <polygon class="fil0" points="6523.85,5849.92 7927.93,9416.29 9003.46,9413.13 7575.24,5847.79 "/>
  <polygon class="fil0" points="13270.66,5850.51 13271.12,9414.18 14224.79,9412.87 14224.79,5851.02 "/>
  <path class="fil0" d="M17638.49 8108.71c3.07,416.72 33.39,876.27 308.7,1307.18 539.37,0 1078.75,0 1618.12,0 -552.56,-140.67 -971.19,-340.41 -1220.37,-617.69 -587.04,-653.26 -511.51,-1594.86 -41.91,-2328.42 169.39,-264.64 381.88,-410.49 717.29,-593.11 -856.43,343.45 -1389.02,1254.11 -1381.83,2232.04z"/>
  <path class="fil0" d="M21241.72 5904.57c441.25,307.59 798.36,653.07 1024.97,1074.27 201.86,375.18 328.08,812.87 380.6,1244.55 2.8,-768.74 5.62,-1537.45 8.42,-2306.19 -42.1,267.71 -311.43,426.02 -479.78,394.95 -285.54,-52.69 -643.86,-249.27 -934.21,-407.58z"/>
  <polygon class="fil0" points="10471.29,13166.47 9896.86,11738.29 8842.14,11732.48 9941.58,14557.33 "/>
  <polygon class="fil0" points="13270.24,11734.52 13268.67,14822.79 14221.27,14822.79 14224.44,11736.89 "/>
  <path class="fil0" d="M17644.25 12364.33c-2.8,768.73 -9.83,1621.62 -12.63,2390.36 50.52,-280.34 459.72,-374.9 631.3,-357.08 283.37,29.41 732.93,188.41 1038.14,316.96 -458.1,-282.32 -999.13,-703.47 -1225.7,-1124.63 -201.83,-375.15 -378.59,-793.93 -431.11,-1225.61z"/>
  <path class="fil0" d="M22392.68 11710.58c430.21,616.91 470.88,1322.93 262.71,1881.73 -212.08,569.34 -681.11,987.51 -1102.29,1177.74 1252.57,-388.14 1761.24,-1965.21 1569.72,-3059.47 -539.37,0 -190.77,0 -730.14,0z"/>
  <path class="fil0" d="M7399.47 14830c-275.87,-67.26 -508.95,-175.03 -642.27,-386.43 -125.73,-199.4 -211.67,-461.32 -231.53,-773.33 -19.87,312.01 -101.04,570.01 -226.79,769.42 -133.32,211.42 -366.4,319.16 -642.26,386.43 296.6,-3.72 593.19,-3.07 889.8,-6.79 284.36,3.56 568.69,7.14 853.05,10.7z"/>
 </g>
</svg>
