<?xml version="1.0" encoding="UTF-8"?>
<!DOCTYPE svg PUBLIC "-//W3C//DTD SVG 1.1//EN" "http://www.w3.org/Graphics/SVG/1.1/DTD/svg11.dtd">
<!-- Creator: CorelDRAW 2018 (64-Bit) -->
<svg xmlns="http://www.w3.org/2000/svg" xml:space="preserve" width="297mm" height="210mm" version="1.1" style="shape-rendering:geometricPrecision; text-rendering:geometricPrecision; image-rendering:optimizeQuality; fill-rule:evenodd; clip-rule:evenodd"
viewBox="0 0 29700 21000"
 xmlns:xlink="http://www.w3.org/1999/xlink">
 <defs>
  <style type="text/css">
   <![CDATA[
    .fil1 {fill:none}
    .fil0 {fill:#FEFEFE}
   ]]>
  </style>
 </defs>
 <g id="Слой_x0020_1">
  <metadata id="CorelCorpID_0Corel-Layer"/>
  <polygon class="fil0" points="2194.21,3365.17 3822.88,3361.87 6035.29,8884.82 4369.22,8889.72 "/>
  <polygon class="fil0" points="12645.47,3366.08 14123.48,3366.87 14123.48,8884.42 12646.18,8886.45 "/>
  <polygon class="fil0" points="5785.39,12477.65 7419.22,12486.65 8309.05,14698.99 7488.5,16853.53 "/>
  <path class="fil1" d="M2197.03 15479.37c-30.78,483.32 -156.52,882.98 -351.32,1191.88 -206.52,327.5 -567.57,494.4 -994.9,598.61 459.61,-5.77 919.2,-4.76 1378.81,-10.52"/>
  <path class="fil1" d="M2197.03 15479.37c30.76,483.32 163.89,889.05 358.65,1197.94 206.52,327.47 567.58,494.41 994.92,598.6 -459.61,-5.76 -919.2,-11.52 -1378.81,-17.3"/>
  <polygon class="fil0" points="12644.81,12480.81 14122.93,12484.48 14118.02,17264.74 12642.38,17264.74 "/>
  <path class="fil0" d="M21552.07 3406.61c-1326.67,532.03 -2151.68,1942.7 -2140.54,3457.58 4.75,645.52 51.72,1357.4 478.19,2024.91 835.52,0 1671.06,0 2506.58,0 -855.95,-217.91 -1504.44,-527.32 -1890.44,-956.85 -909.36,-1011.94 -792.36,-2470.54 -64.92,-3606.87 262.4,-409.95 591.56,-635.88 1111.13,-918.77z"/>
  <path class="fil0" d="M24993.17 3449.83c449.77,245.23 1004.83,549.75 1447.15,631.37 260.79,48.13 678,-197.11 743.21,-611.81 -4.33,1190.83 -8.7,2381.61 -13.04,3572.44 -81.36,-668.7 -276.88,-1346.71 -589.57,-1927.89 -351.04,-652.46 -904.23,-1187.64 -1587.75,-1664.11z"/>
  <path class="fil0" d="M21986.96 17097.1c-472.79,-199.13 -1169.19,-445.43 -1608.15,-490.99 -265.79,-27.6 -899.67,118.88 -977.93,553.14 4.34,-1190.83 15.23,-2512.01 19.57,-3702.82 81.35,668.7 355.17,1317.42 667.82,1898.55 350.97,652.4 1189.06,1304.79 1898.69,1742.12z"/>
  <path class="fil0" d="M25475.52 17183.05c1940.31,-601.26 2728.28,-3044.24 2431.6,-4739.33 -835.52,0 -295.52,0 -1131.04,0 666.43,955.64 729.43,2049.31 406.96,2914.93 -328.53,881.94 -1055.09,1529.72 -1707.52,1824.4z"/>
  <polygon class="fil0" points="2194.21,3365.17 4369.22,8889.72 6035.29,8884.82 3822.88,3361.87 "/>
  <polygon class="fil0" points="12645.47,3366.08 12646.18,8886.45 14123.48,8884.42 14123.48,3366.87 "/>
  <path class="fil0" d="M19411.53 6864.19c4.75,645.52 51.72,1357.4 478.19,2024.91 835.52,0 1671.06,0 2506.58,0 -855.95,-217.91 -1504.44,-527.32 -1890.44,-956.85 -909.36,-1011.94 -792.36,-2470.54 -64.92,-3606.87 262.4,-409.95 591.56,-635.88 1111.13,-918.77 -1326.67,532.03 -2151.68,1942.7 -2140.54,3457.58z"/>
  <path class="fil0" d="M24993.17 3449.83c683.52,476.47 1236.71,1011.65 1587.75,1664.11 312.69,581.18 508.21,1259.19 589.57,1927.89 4.34,-1190.83 8.71,-2381.61 13.04,-3572.44 -65.21,414.7 -482.42,659.94 -743.21,611.81 -442.32,-81.62 -997.38,-386.14 -1447.15,-631.37z"/>
  <polygon class="fil0" points="8309.05,14698.99 7419.22,12486.65 5785.39,12477.65 7488.5,16853.53 "/>
  <polygon class="fil0" points="12644.81,12480.81 12642.38,17264.74 14118.02,17264.74 14122.93,12484.48 "/>
  <path class="fil0" d="M19420.45 13456.43c-4.34,1190.81 -15.23,2511.99 -19.57,3702.82 78.26,-434.26 712.14,-580.74 977.93,-553.14 438.96,45.56 1135.36,291.86 1608.15,490.99 -709.63,-437.33 -1547.72,-1089.72 -1898.69,-1742.12 -312.65,-581.13 -586.47,-1229.85 -667.82,-1898.55z"/>
  <path class="fil0" d="M26776.08 12443.72c666.43,955.64 729.43,2049.31 406.96,2914.93 -328.53,881.94 -1055.09,1529.72 -1707.52,1824.4 1940.31,-601.26 2728.28,-3044.24 2431.6,-4739.33 -835.52,0 -295.52,0 -1131.04,0z"/>
  <path class="fil0" d="M3550.6 17275.91c-427.34,-104.19 -788.4,-271.13 -994.92,-598.6 -194.76,-308.89 -327.89,-714.62 -358.65,-1197.94 -30.78,483.32 -156.52,882.98 -351.32,1191.88 -206.52,327.5 -567.57,494.4 -994.9,598.61 459.45,-5.77 918.89,-4.76 1378.36,-10.52 440.49,5.51 880.94,11.06 1321.43,16.57z"/>
 </g>
</svg>
